<?xml version="1.0" encoding="utf-8"?><svg viewBox="0 0 160 33" xmlns="http://www.w3.org/2000/svg" xmlns:xlink="http://www.w3.org/1999/xlink"><style>:root>svg{display:none}:root>svg:target{display:block}</style><svg fill="none" viewBox="0 0 41 26" id="arrow-right" xmlns="http://www.w3.org/2000/svg"><path d="m28 25 12-11.957m0 0L28 1m12 12.043H1" stroke="#fff" stroke-linecap="round" stroke-linejoin="round"/></svg><svg fill="none" viewBox="0 0 160 33" id="logo" xmlns="http://www.w3.org/2000/svg"><path d="M12.475 25.42c-2.473 0-4.597-.525-6.37-1.575C4.332 22.772 2.967 21.29 2.01 19.4 1.053 17.487.575 15.282.575 12.785S1.053 8.083 2.01 6.17c.957-1.913 2.322-3.407 4.095-4.48C7.878.617 10.002.08 12.475.08c2.94 0 5.343.735 7.21 2.205 1.89 1.447 3.068 3.488 3.535 6.125h-4.935c-.303-1.33-.957-2.368-1.96-3.115-.98-.77-2.287-1.155-3.92-1.155-2.263 0-4.037.77-5.32 2.31-1.283 1.54-1.925 3.652-1.925 6.335s.642 4.795 1.925 6.335c1.283 1.517 3.057 2.275 5.32 2.275 1.633 0 2.94-.35 3.92-1.05 1.003-.723 1.657-1.715 1.96-2.975h4.935c-.467 2.52-1.645 4.492-3.535 5.915-1.867 1.423-4.27 2.135-7.21 2.135Zm19.89 0c-1.493 0-2.718-.233-3.674-.7-.957-.49-1.669-1.132-2.135-1.925a5.082 5.082 0 0 1-.7-2.625c0-1.61.63-2.917 1.89-3.92 1.26-1.003 3.15-1.505 5.67-1.505h4.41v-.42c0-1.19-.339-2.065-1.015-2.625-.677-.56-1.517-.84-2.52-.84-.91 0-1.704.222-2.38.665-.677.42-1.097 1.05-1.26 1.89h-4.375c.116-1.26.536-2.357 1.26-3.29.746-.933 1.703-1.645 2.87-2.135 1.166-.513 2.473-.77 3.92-.77 2.473 0 4.421.618 5.845 1.855 1.423 1.237 2.135 2.987 2.135 5.25V25H38.49l-.42-2.8a6.42 6.42 0 0 1-2.17 2.31c-.91.607-2.089.91-3.535.91Zm1.016-3.5c1.283 0 2.275-.42 2.975-1.26.723-.84 1.178-1.878 1.365-3.115h-3.815c-1.19 0-2.042.222-2.555.665-.514.42-.77.945-.77 1.575 0 .677.256 1.202.77 1.575.513.373 1.19.56 2.03.56Zm19.675 3.5c-1.54 0-2.893-.245-4.06-.735-1.167-.513-2.1-1.213-2.8-2.1-.7-.887-1.12-1.913-1.26-3.08h4.515c.14.677.513 1.26 1.12 1.75.63.467 1.435.7 2.415.7s1.692-.198 2.135-.595c.466-.397.7-.852.7-1.365 0-.747-.327-1.248-.98-1.505-.654-.28-1.563-.548-2.73-.805a29.82 29.82 0 0 1-2.275-.595 11.68 11.68 0 0 1-2.135-.875 4.946 4.946 0 0 1-1.54-1.4c-.397-.583-.595-1.295-.595-2.135 0-1.54.606-2.835 1.82-3.885 1.236-1.05 2.963-1.575 5.18-1.575 2.053 0 3.686.478 4.9 1.435 1.236.957 1.971 2.275 2.205 3.955h-4.235c-.257-1.283-1.225-1.925-2.905-1.925-.84 0-1.493.163-1.96.49-.444.327-.665.735-.665 1.225 0 .513.338.922 1.015 1.225.676.303 1.575.583 2.695.84 1.213.28 2.322.595 3.325.945 1.026.327 1.843.828 2.45 1.505.607.653.91 1.598.91 2.835.023 1.073-.257 2.042-.84 2.905-.584.863-1.423 1.54-2.52 2.03-1.097.49-2.392.735-3.885.735ZM70.758 25c-1.82 0-3.279-.443-4.375-1.33-1.097-.887-1.645-2.462-1.645-4.725v-7.56h-2.975V7.64h2.975l.525-4.655h3.955V7.64h4.69v3.745h-4.69v7.595c0 .84.175 1.423.525 1.75.373.303 1.003.455 1.89.455h2.17V25h-3.045Zm12.281.42c-1.493 0-2.718-.233-3.675-.7-.957-.49-1.668-1.132-2.135-1.925a5.082 5.082 0 0 1-.7-2.625c0-1.61.63-2.917 1.89-3.92 1.26-1.003 3.15-1.505 5.67-1.505h4.41v-.42c0-1.19-.338-2.065-1.015-2.625-.677-.56-1.517-.84-2.52-.84-.91 0-1.703.222-2.38.665-.677.42-1.097 1.05-1.26 1.89H76.95c.117-1.26.537-2.357 1.26-3.29.747-.933 1.703-1.645 2.87-2.135 1.167-.513 2.473-.77 3.92-.77 2.473 0 4.422.618 5.845 1.855s2.135 2.987 2.135 5.25V25h-3.815l-.42-2.8a6.42 6.42 0 0 1-2.17 2.31c-.91.607-2.088.91-3.535.91Zm1.015-3.5c1.283 0 2.275-.42 2.975-1.26.723-.84 1.178-1.878 1.365-3.115H84.58c-1.19 0-2.042.222-2.555.665-.513.42-.77.945-.77 1.575 0 .677.257 1.202.77 1.575s1.19.56 2.03.56ZM99.778 25 94.703 7.64h4.445l3.01 12.495 3.5-12.495h4.97l3.5 12.495 3.045-12.495h4.445L116.508 25h-4.655l-3.71-12.985L104.433 25h-4.655Zm29.063.42c-1.493 0-2.718-.233-3.675-.7-.956-.49-1.668-1.132-2.135-1.925a5.088 5.088 0 0 1-.7-2.625c0-1.61.63-2.917 1.89-3.92 1.26-1.003 3.15-1.505 5.67-1.505h4.41v-.42c0-1.19-.338-2.065-1.015-2.625-.676-.56-1.516-.84-2.52-.84-.91 0-1.703.222-2.38.665-.676.42-1.096 1.05-1.26 1.89h-4.375c.117-1.26.537-2.357 1.26-3.29.747-.933 1.704-1.645 2.87-2.135 1.167-.513 2.474-.77 3.92-.77 2.474 0 4.422.618 5.845 1.855 1.424 1.237 2.135 2.987 2.135 5.25V25h-3.815l-.42-2.8a6.41 6.41 0 0 1-2.17 2.31c-.91.607-2.088.91-3.535.91Zm1.015-3.5c1.284 0 2.275-.42 2.975-1.26.724-.84 1.179-1.878 1.365-3.115h-3.815c-1.19 0-2.041.222-2.555.665-.513.42-.77.945-.77 1.575 0 .677.257 1.202.77 1.575.514.373 1.19.56 2.03.56Zm14.089 10.78 4.025-8.855h-1.05L140.165 7.64h4.865l4.865 12.215L154.97 7.64h4.76L148.705 32.7h-4.76Z" fill="#fff"/></svg><svg fill="none" viewBox="0 0 32 32" id="socials--IMAGE" xmlns="http://www.w3.org/2000/svg"><g clip-path="url(#ha)"><path d="M15.66 30c7.731 0 14-6.268 14-14s-6.269-14-14-14c-7.733 0-14 6.268-14 14s6.267 14 14 14Z" fill="#fff"/><path d="M16.186 0C7.611 0 .66 7.163.66 16s6.952 16 15.527 16c8.576 0 15.527-7.163 15.527-16S24.764 0 16.187 0Zm4.81 16.148c0-2.655-2.089-4.808-4.666-4.808-2.577 0-4.666 2.152-4.666 4.808 0 2.655 2.09 4.808 4.666 4.808v2.748c-4.05 0-7.332-3.383-7.332-7.556s3.282-7.556 7.332-7.556 7.333 3.383 7.333 7.556h-2.667Zm4.5 0c0-5.216-4.104-9.444-9.166-9.444s-9.165 4.228-9.165 9.444c0 5.216 4.103 9.444 9.165 9.444v3.148c-6.749 0-12.22-5.638-12.22-12.592 0-6.955 5.471-12.592 12.22-12.592 6.75 0 12.22 5.637 12.22 12.592h-3.055Z" fill="#F43E37"/></g><defs><clipPath id="ha"><path fill="#fff" d="M0 0h32v32H0z"/></clipPath></defs></svg><svg fill="none" viewBox="0 0 32 32" id="socials--IMAGE-1" xmlns="http://www.w3.org/2000/svg"><g clip-path="url(#da)"><path fill-rule="evenodd" clip-rule="evenodd" d="M31.367 27.736c-.31.79-1.029 1.902-2.047 2.686a6.702 6.702 0 0 1-2.252 1.17c-1.028.305-2.293.408-3.868.408H8.8c-1.575 0-2.84-.103-3.867-.407a6.704 6.704 0 0 1-2.253-1.171C1.662 29.638.944 28.526.633 27.736.006 26.144 0 24.338 0 23.2V8.8c0-1.138.006-2.944.633-4.536.311-.79 1.029-1.902 2.047-2.686A6.703 6.703 0 0 1 4.933.408C5.96.102 7.225 0 8.8 0h14.4c1.575 0 2.84.103 3.868.407a6.705 6.705 0 0 1 2.253 1.171c1.017.784 1.735 1.896 2.046 2.686C31.994 5.856 32 7.662 32 8.8v14.4c0 1.137-.006 2.944-.633 4.536Z" fill="url(#db)"/><path d="M18.32 18.393c-.48-.506-1.323-.831-2.318-.831-.996 0-1.84.325-2.32.831-.25.265-.383.536-.425.922-.08.747-.035 1.391.053 2.42.083.981.242 2.289.448 3.62.148.949.267 1.46.376 1.827.176.594.836 1.113 1.868 1.113 1.031 0 1.69-.52 1.867-1.113.11-.367.229-.878.376-1.826a55.75 55.75 0 0 0 .448-3.62c.088-1.03.133-1.674.053-2.421a1.472 1.472 0 0 0-.425-.922Zm-4.935-4.51a2.619 2.619 0 1 0 5.238-.001 2.619 2.619 0 0 0-5.238 0Zm2.587-10.336c-6.125.017-11.144 4.986-11.22 11.11-.061 4.962 3.106 9.206 7.528 10.762a.15.15 0 0 0 .2-.164 63.968 63.968 0 0 1-.164-1.153.387.387 0 0 0-.227-.305c-3.496-1.527-5.936-5.033-5.897-9.093.051-5.33 4.403-9.674 9.732-9.717 5.447-.044 9.893 4.375 9.893 9.813 0 4.02-2.43 7.482-5.898 8.997a.387.387 0 0 0-.227.305c-.05.38-.105.768-.163 1.153a.15.15 0 0 0 .2.164c4.38-1.54 7.528-5.719 7.528-10.619 0-6.216-5.066-11.27-11.285-11.253Zm-.204 5.162a6.105 6.105 0 0 1 6.34 6.094c0 1.751-.742 3.332-1.928 4.445a.466.466 0 0 0-.146.366c.023.42.015.826-.013 1.286-.008.122.13.2.23.131a7.536 7.536 0 0 0 3.297-6.228c0-4.255-3.545-7.699-7.837-7.532-3.988.154-7.188 3.443-7.24 7.434a7.535 7.535 0 0 0 3.296 6.327c.101.069.238-.01.23-.132a10.79 10.79 0 0 1-.012-1.286.466.466 0 0 0-.147-.366 6.083 6.083 0 0 1-1.925-4.608c.084-3.196 2.66-5.807 5.855-5.93Z" fill="#fff"/></g><defs><linearGradient id="db" x1="16" y1="0" x2="16" y2="32" gradientUnits="userSpaceOnUse"><stop stop-color="#F452FF"/><stop offset="1" stop-color="#832BC1"/></linearGradient><clipPath id="da"><path fill="#fff" d="M0 0h32v32H0z"/></clipPath></defs></svg><svg fill="none" viewBox="0 0 32 32" id="socials--IMAGE-2" xmlns="http://www.w3.org/2000/svg"><g clip-path="url(#ea)"><path d="M16 .053C7.19.053.047 7.194.047 16.003c0 8.81 7.142 15.951 15.951 15.951 8.81 0 15.952-7.14 15.952-15.95 0-8.81-7.141-15.95-15.952-15.95V.052Zm7.314 23.005a.994.994 0 0 1-1.367.33c-3.745-2.288-8.46-2.806-14.012-1.537a.995.995 0 0 1-.443-1.94c6.076-1.388 11.288-.79 15.493 1.78.468.287.617.899.33 1.367Zm1.953-4.343c-.36.585-1.126.77-1.71.41-4.288-2.636-10.824-3.4-15.896-1.86a1.245 1.245 0 0 1-1.552-.828 1.245 1.245 0 0 1 .83-1.551c5.793-1.758 12.994-.907 17.918 2.12.585.36.77 1.125.41 1.709Zm.167-4.523c-5.14-3.054-13.622-3.334-18.53-1.845a1.492 1.492 0 1 1-.867-2.855c5.635-1.71 15.001-1.38 20.92 2.134a1.49 1.49 0 1 1-1.522 2.566Z" fill="#1ED760"/></g><defs><clipPath id="ea"><path fill="#fff" d="M0 0h32v32H0z"/></clipPath></defs></svg><svg fill="none" viewBox="0 0 32 32" id="socials--IMAGE-3" xmlns="http://www.w3.org/2000/svg"><g clip-path="url(#fa)"><path d="M15.938 30C23.703 30 30 23.704 30 15.937c0-7.766-6.296-14.062-14.063-14.062-7.766 0-14.062 6.296-14.062 14.063C1.875 23.703 8.171 30 15.938 30Z" fill="#fff" stroke="#363F46" stroke-width="2.426" stroke-linecap="round"/><path d="M8.303 9.999s-1.945 2.194-1.945 6.027 1.945 5.938 1.945 5.938" fill="#fff"/><path d="M8.303 9.999s-1.945 2.194-1.945 6.027 1.945 5.938 1.945 5.938" stroke="#FC7E0F" stroke-width="2.426" stroke-linecap="round"/><path d="M23.796 9.999s1.945 2.194 1.945 6.027-1.945 5.938-1.945 5.938" fill="#fff"/><path d="M23.796 9.999s1.945 2.194 1.945 6.027-1.945 5.938-1.945 5.938" stroke="#FC7E0F" stroke-width="2.426" stroke-linecap="round"/><path d="M20.694 12.563s1.31 1.63 1.278 3.455c-.04 2.194-1.262 3.399-1.262 3.399" fill="#fff"/><path d="M20.694 12.563s1.31 1.63 1.278 3.455c-.04 2.194-1.262 3.399-1.262 3.399" stroke="#FC7E0F" stroke-width="2.426" stroke-linecap="round"/><path d="M11.34 12.563s-1.31 1.63-1.277 3.455c.04 2.194 1.262 3.399 1.262 3.399" fill="#fff"/><path d="M11.34 12.563s-1.31 1.63-1.277 3.455c.04 2.194 1.262 3.399 1.262 3.399" stroke="#FC7E0F" stroke-width="2.426" stroke-linecap="round"/><path d="M15.936 18.12a2.183 2.183 0 1 0 0-4.365 2.183 2.183 0 0 0 0 4.366Z" fill="#363F46"/><path d="m16.305 17.977-1.549-.416-2.578 9.631 1.548.416 2.579-9.631Z" fill="#363F46"/><path d="m15.705 17.964 1.542-.41 2.565 9.64-1.542.409-2.565-9.639Z" fill="#363F46"/><path d="m14.273 23.162.572-.587 3.97 3.868-.573.587-3.97-3.868Z" fill="#363F46"/><path d="m17.635 23.183-.518-.526-3.936 3.909.518.525 3.936-3.909Z" fill="#363F46"/></g><defs><clipPath id="fa"><path fill="#fff" d="M0 0h32v32H0z"/></clipPath></defs></svg><svg fill="none" viewBox="0 0 32 32" id="socials--IMAGE-4" xmlns="http://www.w3.org/2000/svg"><g clip-path="url(#ga)"><path d="M31.66 16c0 8.889-7.133 16-15.768 16C7.258 32 0 24.889 0 16S7.133 0 15.767 0 31.66 7.111 31.66 16Z" fill="url(#gb)"/><path d="M4.67 17.07c.006-.054.044-.091.09-.091s.084.037.091.09l.197 1.277L4.85 19.6c-.007.053-.044.09-.09.09-.047 0-.085-.038-.091-.09l-.166-1.255.166-1.277ZM5.598 16.189c.048 0 .087.038.095.093l.253 2.064-.254 2.02c-.007.054-.046.092-.094.092s-.088-.04-.094-.093l-.223-2.019.223-2.064c.007-.054.046-.093.094-.093ZM9.03 14.55a.176.176 0 0 1 .172-.173c.09 0 .166.076.171.173l.2 3.798-.2 2.454a.177.177 0 0 1-.171.172.176.176 0 0 1-.172-.172l-.177-2.454.177-3.798ZM7.252 15.83c.006-.076.063-.133.133-.133s.127.057.133.133l.227 2.516-.227 2.435c-.006.075-.063.132-.133.132s-.127-.057-.133-.132l-.2-2.435.2-2.516ZM11.257 20.762a.214.214 0 0 1-.21.211.213.213 0 0 1-.21-.21l-.155-2.415.155-5.055a.213.213 0 0 1 .21-.212c.113 0 .205.093.21.211l.174 5.057-.174 2.413ZM15.112 20.694a.293.293 0 0 1-.287.29.292.292 0 0 1-.288-.288l-.108-2.348.108-5.837a.292.292 0 0 1 .288-.29c.156 0 .285.13.287.29l.122 5.84-.122 2.343ZM13.17 20.724a.252.252 0 0 1-.249.251.251.251 0 0 1-.248-.25l-.132-2.376.131-5.093a.251.251 0 0 1 .25-.251c.135 0 .244.11.248.251l.148 5.093-.148 2.377v-.002ZM8.442 20.801c-.006.087-.071.152-.152.152-.082 0-.147-.065-.152-.152l-.189-2.454.189-2.335c.005-.087.07-.152.152-.152.08 0 .146.065.152.151l.214 2.335-.214 2.455ZM6.602 20.706c-.007.066-.055.113-.114.113-.06 0-.108-.048-.113-.113l-.212-2.36.212-2.45c.006-.064.053-.112.113-.112.059 0 .107.047.114.113l.24 2.45-.24 2.36ZM13.6 13.443a.27.27 0 0 1 .27-.272.27.27 0 0 1 .267.271l.135 4.908-.135 2.361v-.002a.27.27 0 0 1-.268.271.27.27 0 0 1-.268-.27l-.12-2.36.12-4.907ZM10.312 20.786a.196.196 0 0 1-.191.192.195.195 0 0 1-.191-.19l-.166-2.44.166-4.666a.195.195 0 0 1 .19-.192c.103 0 .186.084.192.191l.187 4.667-.188 2.438ZM12.21 20.748a.233.233 0 0 1-.23.23.232.232 0 0 1-.229-.23l-.143-2.4.143-5.226a.232.232 0 0 1 .23-.231c.124 0 .225.101.229.231l.16 5.227-.16 2.398ZM23.291 15.556c.332-.141.697-.22 1.078-.22 1.539 0 2.786 1.266 2.786 2.828 0 1.561-1.248 2.827-2.786 2.827l-7.723-.005a.34.34 0 0 1-.3-.334V11.68c.002-.165.058-.25.268-.332a4.917 4.917 0 0 1 1.782-.338c2.568 0 4.674 1.999 4.895 4.547ZM15.469 11.982a.312.312 0 0 1 .307-.31c.167 0 .304.139.307.31l.136 6.369-.136 2.312v-.003a.312.312 0 0 1-.307.31.311.311 0 0 1-.307-.307l-.126-2.312.126-6.369Z" fill="#fff"/></g><defs><linearGradient id="gb" x1="15.83" y1="0" x2="15.83" y2="32" gradientUnits="userSpaceOnUse"><stop stop-color="#FF7602"/><stop offset="1" stop-color="#FF3502"/></linearGradient><clipPath id="ga"><path fill="#fff" d="M0 0h32v32H0z"/></clipPath></defs></svg><svg fill="none" viewBox="0 0 18 17" id="star" xmlns="http://www.w3.org/2000/svg"><path d="m9.013 13.697 4.15 2.51c.76.46 1.69-.22 1.49-1.08l-1.1-4.72 3.67-3.18c.67-.58.31-1.68-.57-1.75l-4.83-.41-1.89-4.46c-.34-.81-1.5-.81-1.84 0l-1.89 4.45-4.83.41c-.88.07-1.24 1.17-.57 1.75l3.67 3.18-1.1 4.72c-.2.86.73 1.54 1.49 1.08l4.15-2.5Z" fill="#FCFF51"/></svg></svg>